<?xml version="1.0" encoding="utf-8"?>
<!-- Generator: Adobe Illustrator 24.3.0, SVG Export Plug-In . SVG Version: 6.00 Build 0)  -->
<svg version="1.1" id="Layer_1" xmlns="http://www.w3.org/2000/svg" xmlns:xlink="http://www.w3.org/1999/xlink" x="0px" y="0px"
	 viewBox="0 0 595.28 841.89" style="enable-background:new 0 0 595.28 841.89;" xml:space="preserve">
<style type="text/css">
	.st0{fill:#6D6E71;}
	.st1{fill:#939598;}
	.st2{font-family:'Skygraze';}
	.st3{font-size:8px;}
	.st4{letter-spacing:3;}
</style>
<path class="st0" d="M219.48,281.91l-2.25-6.74h10.51L221.73,261l-8.87,20.91h-7.34l16.22-38.18l16.22,38.18H219.48z"/>
<path class="st1" d="M250.78,242.99l-11.81,27.8l-0.13,0.31c0.13,0.24,0.25,0.5,0.34,0.76c0.07,0.15,0.14,0.3,0.21,0.46
	c1.11,2.68,2.34,5.1,3.32,7.64l0.08-0.18l7.99-18.84l6.25,14.72h-10.92l2.33,7h19.18L250.78,242.99z"/>
<g>
	<g>
		<path d="M210,241v11h-16v44.83l-10,3.74V252h-16v-11H210z"/>
	</g>
	<g>
		<path d="M174.29,241h-14.12l3.74,11h10.36c0.04-0.26,0.09-0.53,0.14-0.79C173.98,248.01,174.18,244.32,174.29,241z"/>
	</g>
</g>
<g>
	<g>
		<path d="M199.32,289l-0.35,0.82c0.14,0.03,0.21,0.04,0.35,0.08h99.6l-8.24-4.4h-91.04C200.71,286.67,199.84,287.78,199.32,289z"/>
	</g>
	<rect x="197.62" y="285.49" width="4.44" height="4.4"/>
</g>
<text transform="matrix(1 0 0 1 197.617 298.085)" class="st2 st3 st4">trAVELLETERIA</text>
</svg>
